<?xml version="1.0" encoding="UTF-8"?>
<svg xmlns="http://www.w3.org/2000/svg" width="146.05mm" height="146.05mm" viewBox="0 0 414 414">
  <g id="_45x45gird" data-name="45x45gird">
    <g>
      <rect width="414" height="414" fill="none" stroke="#29fd2f" stroke-miterlimit="10" stroke-width=".25"/>
      <line y1="405" x2="414" y2="405" fill="none" stroke="#29fd2f" stroke-miterlimit="10" stroke-width=".25"/>
      <line y1="396" x2="414" y2="396" fill="none" stroke="#29fd2f" stroke-miterlimit="10" stroke-width=".25"/>
      <line y1="387" x2="414" y2="387" fill="none" stroke="#29fd2f" stroke-miterlimit="10" stroke-width=".25"/>
      <line y1="378" x2="414" y2="378" fill="none" stroke="#29fd2f" stroke-miterlimit="10" stroke-width=".25"/>
      <line y1="369" x2="414" y2="369" fill="none" stroke="#29fd2f" stroke-miterlimit="10" stroke-width=".25"/>
      <line y1="360" x2="414" y2="360" fill="none" stroke="#29fd2f" stroke-miterlimit="10" stroke-width=".25"/>
      <line y1="351" x2="414" y2="351" fill="none" stroke="#29fd2f" stroke-miterlimit="10" stroke-width=".25"/>
      <line y1="342" x2="414" y2="342" fill="none" stroke="#29fd2f" stroke-miterlimit="10" stroke-width=".25"/>
      <line y1="333" x2="414" y2="333" fill="none" stroke="#29fd2f" stroke-miterlimit="10" stroke-width=".25"/>
      <line y1="324" x2="414" y2="324" fill="none" stroke="#29fd2f" stroke-miterlimit="10" stroke-width=".25"/>
      <line y1="315" x2="414" y2="315" fill="none" stroke="#29fd2f" stroke-miterlimit="10" stroke-width=".25"/>
      <line y1="306" x2="414" y2="306" fill="none" stroke="#29fd2f" stroke-miterlimit="10" stroke-width=".25"/>
      <line y1="297" x2="414" y2="297" fill="none" stroke="#29fd2f" stroke-miterlimit="10" stroke-width=".25"/>
      <line y1="288" x2="414" y2="288" fill="none" stroke="#29fd2f" stroke-miterlimit="10" stroke-width=".25"/>
      <line y1="279" x2="414" y2="279" fill="none" stroke="#29fd2f" stroke-miterlimit="10" stroke-width=".25"/>
      <line y1="270" x2="414" y2="270" fill="none" stroke="#29fd2f" stroke-miterlimit="10" stroke-width=".25"/>
      <line y1="261" x2="414" y2="261" fill="none" stroke="#29fd2f" stroke-miterlimit="10" stroke-width=".25"/>
      <line y1="252" x2="414" y2="252" fill="none" stroke="#29fd2f" stroke-miterlimit="10" stroke-width=".25"/>
      <line y1="243" x2="414" y2="243" fill="none" stroke="#29fd2f" stroke-miterlimit="10" stroke-width=".25"/>
      <line y1="234" x2="414" y2="234" fill="none" stroke="#29fd2f" stroke-miterlimit="10" stroke-width=".25"/>
      <line y1="225" x2="414" y2="225" fill="none" stroke="#29fd2f" stroke-miterlimit="10" stroke-width=".25"/>
      <line y1="216" x2="414" y2="216" fill="none" stroke="#29fd2f" stroke-miterlimit="10" stroke-width=".25"/>
      <line y1="207" x2="414" y2="207" fill="none" stroke="#29fd2f" stroke-miterlimit="10" stroke-width=".25"/>
      <line y1="198" x2="414" y2="198" fill="none" stroke="#29fd2f" stroke-miterlimit="10" stroke-width=".25"/>
      <line y1="189" x2="414" y2="189" fill="none" stroke="#29fd2f" stroke-miterlimit="10" stroke-width=".25"/>
      <line y1="180" x2="414" y2="180" fill="none" stroke="#29fd2f" stroke-miterlimit="10" stroke-width=".25"/>
      <line y1="171" x2="414" y2="171" fill="none" stroke="#29fd2f" stroke-miterlimit="10" stroke-width=".25"/>
      <line y1="162" x2="414" y2="162" fill="none" stroke="#29fd2f" stroke-miterlimit="10" stroke-width=".25"/>
      <line y1="153" x2="414" y2="153" fill="none" stroke="#29fd2f" stroke-miterlimit="10" stroke-width=".25"/>
      <line y1="144" x2="414" y2="144" fill="none" stroke="#29fd2f" stroke-miterlimit="10" stroke-width=".25"/>
      <line y1="135" x2="414" y2="135" fill="none" stroke="#29fd2f" stroke-miterlimit="10" stroke-width=".25"/>
      <line y1="126" x2="414" y2="126" fill="none" stroke="#29fd2f" stroke-miterlimit="10" stroke-width=".25"/>
      <line y1="117" x2="414" y2="117" fill="none" stroke="#29fd2f" stroke-miterlimit="10" stroke-width=".25"/>
      <line y1="108" x2="414" y2="108" fill="none" stroke="#29fd2f" stroke-miterlimit="10" stroke-width=".25"/>
      <line y1="99" x2="414" y2="99" fill="none" stroke="#29fd2f" stroke-miterlimit="10" stroke-width=".25"/>
      <line y1="90" x2="414" y2="90" fill="none" stroke="#29fd2f" stroke-miterlimit="10" stroke-width=".25"/>
      <line y1="81" x2="414" y2="81" fill="none" stroke="#29fd2f" stroke-miterlimit="10" stroke-width=".25"/>
      <line y1="72" x2="414" y2="72" fill="none" stroke="#29fd2f" stroke-miterlimit="10" stroke-width=".25"/>
      <line y1="63" x2="414" y2="63" fill="none" stroke="#29fd2f" stroke-miterlimit="10" stroke-width=".25"/>
      <line y1="54" x2="414" y2="54" fill="none" stroke="#29fd2f" stroke-miterlimit="10" stroke-width=".25"/>
      <line y1="45" x2="414" y2="45" fill="none" stroke="#29fd2f" stroke-miterlimit="10" stroke-width=".25"/>
      <line y1="36" x2="414" y2="36" fill="none" stroke="#29fd2f" stroke-miterlimit="10" stroke-width=".25"/>
      <line y1="27" x2="414" y2="27" fill="none" stroke="#29fd2f" stroke-miterlimit="10" stroke-width=".25"/>
      <line y1="18" x2="414" y2="18" fill="none" stroke="#29fd2f" stroke-miterlimit="10" stroke-width=".25"/>
      <line y1="9" x2="414" y2="9" fill="none" stroke="#29fd2f" stroke-miterlimit="10" stroke-width=".25"/>
      <line x1="405" x2="405" y2="414" fill="none" stroke="#29fd2f" stroke-miterlimit="10" stroke-width=".25"/>
      <line x1="396" x2="396" y2="414" fill="none" stroke="#29fd2f" stroke-miterlimit="10" stroke-width=".25"/>
      <line x1="387" x2="387" y2="414" fill="none" stroke="#29fd2f" stroke-miterlimit="10" stroke-width=".25"/>
      <line x1="378" x2="378" y2="414" fill="none" stroke="#29fd2f" stroke-miterlimit="10" stroke-width=".25"/>
      <line x1="369" x2="369" y2="414" fill="none" stroke="#29fd2f" stroke-miterlimit="10" stroke-width=".25"/>
      <line x1="360" x2="360" y2="414" fill="none" stroke="#29fd2f" stroke-miterlimit="10" stroke-width=".25"/>
      <line x1="351" x2="351" y2="414" fill="none" stroke="#29fd2f" stroke-miterlimit="10" stroke-width=".25"/>
      <line x1="342" x2="342" y2="414" fill="none" stroke="#29fd2f" stroke-miterlimit="10" stroke-width=".25"/>
      <line x1="333" x2="333" y2="414" fill="none" stroke="#29fd2f" stroke-miterlimit="10" stroke-width=".25"/>
      <line x1="324" x2="324" y2="414" fill="none" stroke="#29fd2f" stroke-miterlimit="10" stroke-width=".25"/>
      <line x1="315" x2="315" y2="414" fill="none" stroke="#29fd2f" stroke-miterlimit="10" stroke-width=".25"/>
      <line x1="306" x2="306" y2="414" fill="none" stroke="#29fd2f" stroke-miterlimit="10" stroke-width=".25"/>
      <line x1="297" x2="297" y2="414" fill="none" stroke="#29fd2f" stroke-miterlimit="10" stroke-width=".25"/>
      <line x1="288" x2="288" y2="414" fill="none" stroke="#29fd2f" stroke-miterlimit="10" stroke-width=".25"/>
      <line x1="279" x2="279" y2="414" fill="none" stroke="#29fd2f" stroke-miterlimit="10" stroke-width=".25"/>
      <line x1="270" x2="270" y2="414" fill="none" stroke="#29fd2f" stroke-miterlimit="10" stroke-width=".25"/>
      <line x1="261" x2="261" y2="414" fill="none" stroke="#29fd2f" stroke-miterlimit="10" stroke-width=".25"/>
      <line x1="252" x2="252" y2="414" fill="none" stroke="#29fd2f" stroke-miterlimit="10" stroke-width=".25"/>
      <line x1="243" x2="243" y2="414" fill="none" stroke="#29fd2f" stroke-miterlimit="10" stroke-width=".25"/>
      <line x1="234" x2="234" y2="414" fill="none" stroke="#29fd2f" stroke-miterlimit="10" stroke-width=".25"/>
      <line x1="225" x2="225" y2="414" fill="none" stroke="#29fd2f" stroke-miterlimit="10" stroke-width=".25"/>
      <line x1="216" x2="216" y2="414" fill="none" stroke="#29fd2f" stroke-miterlimit="10" stroke-width=".25"/>
      <line x1="207" x2="207" y2="414" fill="none" stroke="#29fd2f" stroke-miterlimit="10" stroke-width=".25"/>
      <line x1="198" x2="198" y2="414" fill="none" stroke="#29fd2f" stroke-miterlimit="10" stroke-width=".25"/>
      <line x1="189" x2="189" y2="414" fill="none" stroke="#29fd2f" stroke-miterlimit="10" stroke-width=".25"/>
      <line x1="180" x2="180" y2="414" fill="none" stroke="#29fd2f" stroke-miterlimit="10" stroke-width=".25"/>
      <line x1="171" x2="171" y2="414" fill="none" stroke="#29fd2f" stroke-miterlimit="10" stroke-width=".25"/>
      <line x1="162" x2="162" y2="414" fill="none" stroke="#29fd2f" stroke-miterlimit="10" stroke-width=".25"/>
      <line x1="153" x2="153" y2="414" fill="none" stroke="#29fd2f" stroke-miterlimit="10" stroke-width=".25"/>
      <line x1="144" x2="144" y2="414" fill="none" stroke="#29fd2f" stroke-miterlimit="10" stroke-width=".25"/>
      <line x1="135" x2="135" y2="414" fill="none" stroke="#29fd2f" stroke-miterlimit="10" stroke-width=".25"/>
      <line x1="126" x2="126" y2="414" fill="none" stroke="#29fd2f" stroke-miterlimit="10" stroke-width=".25"/>
      <line x1="117" x2="117" y2="414" fill="none" stroke="#29fd2f" stroke-miterlimit="10" stroke-width=".25"/>
      <line x1="108" x2="108" y2="414" fill="none" stroke="#29fd2f" stroke-miterlimit="10" stroke-width=".25"/>
      <line x1="99" x2="99" y2="414" fill="none" stroke="#29fd2f" stroke-miterlimit="10" stroke-width=".25"/>
      <line x1="90" x2="90" y2="414" fill="none" stroke="#29fd2f" stroke-miterlimit="10" stroke-width=".25"/>
      <line x1="81" x2="81" y2="414" fill="none" stroke="#29fd2f" stroke-miterlimit="10" stroke-width=".25"/>
      <line x1="72" x2="72" y2="414" fill="none" stroke="#29fd2f" stroke-miterlimit="10" stroke-width=".25"/>
      <line x1="63" x2="63" y2="414" fill="none" stroke="#29fd2f" stroke-miterlimit="10" stroke-width=".25"/>
      <line x1="54" x2="54" y2="414" fill="none" stroke="#29fd2f" stroke-miterlimit="10" stroke-width=".25"/>
      <line x1="45" x2="45" y2="414" fill="none" stroke="#29fd2f" stroke-miterlimit="10" stroke-width=".25"/>
      <line x1="36" x2="36" y2="414" fill="none" stroke="#29fd2f" stroke-miterlimit="10" stroke-width=".25"/>
      <line x1="27" x2="27" y2="414" fill="none" stroke="#29fd2f" stroke-miterlimit="10" stroke-width=".25"/>
      <line x1="18" x2="18" y2="414" fill="none" stroke="#29fd2f" stroke-miterlimit="10" stroke-width=".25"/>
      <line x1="9" x2="9" y2="414" fill="none" stroke="#29fd2f" stroke-miterlimit="10" stroke-width=".25"/>
    </g>
  </g>
  <g id="designs">
    <g>
      <rect x="162.04" y="387.41" width="152.41" height="26.99" fill="#1aeb25" stroke-width="0"/>
      <rect x="162.6" y="143.72" width="26.4" height="126.54" fill="#1aeb25" stroke-width="0"/>
      <rect x="162.04" width="251.96" height="162" fill="#1aeb25" stroke-width="0"/>
      <rect x="292.31" y="261" width="121.69" height="153.41" fill="#1aeb25" stroke-width="0"/>
      <rect width="27" height="287.9" fill="#1aeb25" stroke-width="0"/>
      <rect y="162" width="144" height="127.13" fill="#1aeb25" stroke-width="0"/>
      <rect x="109.38" y=".31" width="45.45" height="414" fill="#1aeb25" stroke-width="0"/>
      <rect x="162.49" y="261" width="151.61" height="28.13" fill="#1aeb25" stroke-width="0"/>
    </g>
  </g>
</svg>